<?xml version="1.0" encoding="utf-8"?>
<!-- Generator: Adobe Illustrator 19.1.0, SVG Export Plug-In . SVG Version: 6.00 Build 0)  -->
<svg version="1.1" id="Layer_1" xmlns="http://www.w3.org/2000/svg" xmlns:xlink="http://www.w3.org/1999/xlink" x="0px" y="0px"
	 viewBox="-282 88.7 307.8 305.3" style="enable-background:new -282 88.7 307.8 305.3;" xml:space="preserve">
<style type="text/css">
	.st0{fill:none;}
	.st1{fill:url(#New_Pattern_Swatch_1);}
	.st2{fill:#F6EB0F;}
</style>
<pattern  x="-282" y="394" width="360" height="360" patternUnits="userSpaceOnUse" id="New_Pattern_Swatch_1" viewBox="0 -360 360 360" style="overflow:visible;">
	<g>
		<polygon class="st0" points="0,-360 360,-360 360,0 0,0 		"/>
		<g id="zAZPi9_1_">
			
				<image style="overflow:visible;" width="750" height="750" id="zAZPi9_3_" xlink:href="884A367F.jpg"  transform="matrix(0.48 0 0 0.48 0 -360)">
			</image>
		</g>
	</g>
</pattern>
<rect x="-482" y="-103.4" class="st0" width="700" height="700"/>
<g>
	<g>
		<g>
			<g>
				<path class="st1" d="M-164.6,269.4c-1.5,1.7-3.4,3.2-5.5,4.6c-2.2,1.3-4.7,2-7.4,2c-1.6,0-3-0.3-4.2-0.9s-2.2-1.3-2.9-2.3
					c-0.8-0.9-1.4-2-1.8-3.2c-0.4-1.2-0.6-2.5-0.6-3.8c0-2.6,0.7-5.4,2.2-8.6c1.4-3.2,3.5-6.2,6.3-9c1-0.9,2.1-1.8,3.2-2.6
					c1.2-0.8,2.4-1.4,3.5-1.7c1.2-0.4,2.3-0.4,3.4-0.2c1.1,0.2,2.2,0.9,3.1,1.9c0.5,0.7,0.8,1.4,1,2.4c0.2,0.9,0.2,1.9,0,3
					c-0.2,1.1-0.7,2.2-1.4,3.4c-0.7,1.2-1.7,2.4-3.1,3.7c-0.8,0.7-1.5,1.2-2.2,1.6c-0.7,0.4-1.5,0.8-2.4,1.2c-0.9,0.4-2,0.9-3.3,1.4
					c-1.3,0.6-2.9,1.3-4.9,2.1c-0.2,0.9-0.2,1.8-0.1,2.8c0.1,1,0.3,1.9,0.7,2.7c0.4,0.9,0.9,1.6,1.6,2.2c0.7,0.6,1.5,0.9,2.5,0.9
					c2,0,3.9-0.5,5.6-1.4c1.7-0.9,3.3-2.1,4.6-3.4c1.3-1.3,2.5-2.6,3.5-4c1-1.4,1.8-2.5,2.4-3.4l1,2
					C-161.2,265.2-162.8,267.4-164.6,269.4z M-175.9,257.1c1-0.5,2.1-1.1,3.1-1.7c1-0.6,1.9-1.3,2.6-1.9c1-0.9,1.7-1.7,2.1-2.4
					c0.4-0.7,0.3-1.3-0.3-2c-0.5-0.5-1.4-0.6-2.7-0.3c-1.3,0.2-2.8,1.2-4.3,2.9c-0.7,0.9-1.4,1.9-2.2,3c-0.8,1.2-1.5,2.5-2.3,4
					C-178.4,258.2-177,257.7-175.9,257.1z"/>
			</g>
			<g>
				<path class="st1" d="M-187,184.6c2.5-0.4,5-0.7,7.5-0.9c2.5-0.2,4.7-0.2,6.6,0c1.9,0.2,2.8,0.8,2.8,1.8c0,0.2-0.2,1.1-0.5,2.6
					c-0.3,1.5-0.7,3.4-1.2,5.5c-0.1,0-0.3,0.7-0.6,2.1c-0.4,1.4-0.9,3.2-1.5,5.4c-0.6,2.2-1.3,4.7-2.1,7.6c-0.8,2.9-1.6,5.9-2.4,9
					c-0.8,3.1-1.7,6.2-2.5,9.3c-0.9,3.1-1.6,5.9-2.3,8.5c-0.7,2.6-1.3,4.9-1.8,6.8c-0.5,1.9-0.9,3.3-1.2,4.2
					c-1,3.3-2.1,6.6-3.3,10.1c-1.2,3.5-2.6,6.8-4,10.1c-1.5,3.2-3.1,6.3-4.9,9.2c-1.8,2.9-3.8,5.4-5.9,7.6c-2.1,2.2-4.4,3.9-6.9,5.1
					c-2.5,1.2-5.2,1.9-8.1,1.9c-2.9,0-5.5-0.7-8-2s-4.5-3.2-6.1-5.4c-1.6-2.3-2.8-5-3.5-8c-0.7-3-0.7-6.3,0-9.7
					c0.5-2.6,1.3-5.1,2.6-7.4c1.3-2.3,2.8-4.4,4.6-6.1c1.8-1.8,3.7-3.2,5.9-4.2c2.2-1,4.4-1.6,6.7-1.6c1.3-0.1,2.6,0.2,3.9,0.9
					c1.3,0.7,2.3,1.5,3,2.7c0.8,1.1,1.1,2.3,1.1,3.7s-0.6,2.6-1.8,3.8c-0.9,1-2,1.8-3.2,2.6c-1.2,0.8-2.2,1-3.1,0.8
					c-0.2,0-0.3-0.1-0.2-0.3c0.1-0.2,0.2-0.5,0.3-0.8c0.2-0.3,0.3-0.7,0.5-1.1c0.2-0.4,0.3-0.8,0.3-1.2c0-1.3-0.3-2.2-0.9-2.7
					s-1.4-0.7-2.2-0.7c-2.5,0-4.7,1.1-6.8,3.2c-2,2.1-3.4,5.3-4.1,9.4c-0.5,2.4-0.4,4.5,0.1,6.5c0.6,2,1.4,3.6,2.6,5.1
					c1.1,1.4,2.5,2.5,4.1,3.2c1.6,0.8,3.2,1.1,4.8,1.1c3.4,0,6.6-1.3,9.5-3.8c2.9-2.5,5.6-5.9,8.1-10c2.5-4.2,4.8-8.9,6.9-14.2
					c2.1-5.3,4-10.8,5.6-16.3c1.7-5.6,3.1-11,4.4-16.4c1.2-5.4,2.3-10.2,3.2-14.5c0.9-4.3,1.6-7.7,2-10.5c0.5-2.7,0.7-4.2,0.8-4.4
					v-0.4c-0.2-0.3-0.8-0.4-1.7-0.5c-0.9-0.1-2.1-0.1-3.4-0.1c-1.3,0-2.7,0.1-4,0.3c-1.4,0.2-2.6,0.5-3.6,0.8
					c-1.4,0.4-2.6,1-3.7,1.9c-1.1,0.9-2,1.8-2.7,2.9c-0.7,1-1.2,2.1-1.4,3.1c-0.3,1-0.3,1.9-0.1,2.6c0.2,0.7,0.5,1.3,1,1.8
					s0.8,0.8,1.1,1c-0.5,0.1-1,0.1-1.7,0c-0.7-0.1-1.3-0.3-1.9-0.6c-0.6-0.3-1.2-0.7-1.7-1.2c-0.5-0.5-0.8-1.1-1-1.7
					c-0.5-1.6-0.5-3.2-0.1-4.8c0.4-1.6,1-3.1,2-4.6c1-1.4,2.2-2.7,3.7-3.8c1.5-1.1,3.1-2,4.9-2.7C-191.3,185.4-189.4,185-187,184.6z
					"/>
			</g>
		</g>
		<g>
			<g>
				<path class="st1" d="M-27.5,169.9c2,0.4,3.7,1,5.3,1.8c1.5,0.8,2.7,1.9,3.6,3.1c0.9,1.3,1.4,2.7,1.4,4.3c0.1,1-0.1,1.9-0.4,2.8
					c-0.4,0.9-0.8,1.8-1.3,2.6c-0.5,0.8-1.1,1.5-1.8,2.1c-0.7,0.6-1.3,1.1-1.9,1.5c0.1-0.8,0.1-1.7,0-2.7c-0.1-1-0.6-2.1-1.5-3.1
					c-1.8-2-4.6-2.9-8.5-2.7c-2.5,0.1-5.1,0.8-7.8,2.1c-2.7,1.3-5.5,2.9-8.3,4.8c-2.9,1.9-5.9,3.9-8.9,6.1c-3.1,2.2-6.3,4.2-9.5,6
					s-6.6,3.5-10.1,4.8c-3.4,1.3-7,2.1-10.7,2.2c-0.3,2.4-0.5,4.4-0.7,6.1c-0.2,1.6-0.5,3.2-0.7,4.6c-0.3,1.4-0.5,2.8-0.8,4.2
					c-0.3,1.4-0.6,3.1-0.9,5c4.1-1.2,7.8-2.3,10.9-3.3c3.2-0.9,5.9-1.7,8.1-2.3c2.6-0.7,4.9-1.3,6.8-1.8l-1.2,4.5
					c-1.8,0.5-4,1.1-6.6,1.9c-2.2,0.7-4.8,1.5-7.9,2.4c-3.1,0.9-6.7,2.1-10.8,3.5c-1,8.6-2.9,16.6-5.5,23.9
					c-2.7,7.3-5.8,13.6-9.4,18.8c-3.6,5.2-7.5,9.3-11.7,12.3c-4.2,2.9-8.3,4.4-12.4,4.4c-3.3,0-6.2-0.9-8.7-2.8
					c-2.5-1.9-4.4-4.2-5.8-6.9c-1.4-2.8-2.2-5.7-2.5-8.8c-0.2-3.1,0.2-6,1.3-8.5c2.2-5,5.3-9.3,9.1-13.1c3.9-3.8,8-7,12.5-9.8
					c4.5-2.7,9-5.1,13.7-7c4.6-1.9,8.9-3.5,12.7-4.9c0.7-3.3,1.3-6.9,1.9-10.6c0.6-3.7,1.1-7.7,1.5-12c-0.4,0.1-1-0.2-1.9-0.7
					c-0.9-0.5-2-1.1-3.5-1.7c-1.4-0.6-3.1-1.1-5.1-1.6c-1.9-0.5-4.1-0.6-6.5-0.5c-2.5,0.1-4.6,0.5-6.2,1.1c-1.7,0.6-3,1.3-4,2.2
					c-1,0.9-1.7,1.9-2.1,3c-0.4,1.1-0.6,2.3-0.5,3.6c0.1,1.4,0.4,2.6,1,3.6s1.1,1.7,1.5,2.1c-0.8,0-1.7-0.2-2.7-0.6s-1.9-1-2.7-1.8
					c-0.9-0.8-1.6-1.7-2.1-2.7c-0.6-1-0.8-2.2-0.8-3.3c0-4.8,1.5-8.4,4.6-10.6c3.1-2.2,7.8-3.3,14-3.3c2.4,0,4.6,0.3,6.4,0.8
					c1.9,0.6,3.6,1.1,5.2,1.8c1.6,0.6,3.2,1.2,4.7,1.7c1.5,0.5,3.2,0.8,4.9,0.7c3.1-0.2,6.3-1,9.6-2.5c3.2-1.5,6.5-3.3,9.8-5.4
					c3.3-2.2,6.5-4.5,9.8-7c3.2-2.5,6.4-4.8,9.6-6.9c3.2-2.1,6.3-3.9,9.3-5.4c3-1.5,6-2.3,9-2.5C-31.6,169.4-29.5,169.5-27.5,169.9z
					 M-118.7,276.6c3.3-2.5,6.1-5.8,8.6-10.1c2.5-4.3,4.5-9.3,6.3-15c1.7-5.7,3.3-11.9,4.6-18.4c-3.1,1-6.6,2.3-10.3,3.8
					c-3.7,1.5-7.5,3.4-11.2,5.7s-7.3,5.1-10.8,8.3c-3.5,3.2-6.5,7.1-9,11.6c-1.2,1.9-1.7,3.9-1.6,5.9c0.1,2.1,0.7,4,1.7,5.7
					c1,1.7,2.4,3.2,4.2,4.3c1.8,1.1,3.9,1.7,6.2,1.7C-125.8,280.3-122,279-118.7,276.6z"/>
			</g>
			<g>
				<g>
					<path class="st1" d="M-67.1,268.4c-1.1,1.5-2.3,2.9-3.6,4.3c-1.3,1.4-2.5,2.3-3.6,2.8c-1.4,0.5-2.5,0.5-3.2,0
						c-0.7-0.5-1.2-1.2-1.5-2.1c-0.3-1-0.5-2.2-0.4-3.5c-0.8,1.1-1.7,2.1-2.7,2.9c-0.9,0.7-2,1.4-3.2,2c-1.2,0.6-2.6,0.9-4.1,0.9
						c-0.5,0-1.1-0.1-1.9-0.2c-0.7-0.2-1.4-0.5-2.1-0.9c-0.7-0.5-1.2-1.1-1.7-1.9c-0.5-0.8-0.7-1.8-0.8-3c-0.1-1.9,0.2-4.2,1-6.8
						c0.8-2.6,2-5.4,3.5-8.3c0.5-1,1.2-2.1,2-3.3c0.8-1.1,1.7-2.2,2.6-3.2c0.9-1,1.8-1.9,2.8-2.7c1-0.8,1.8-1.3,2.7-1.6
						c1.4-0.6,2.5-0.8,3.5-0.5c0.9,0.2,1.7,0.6,2.3,1.2c0.6,0.6,0.9,1.2,1.1,1.8c0.2,0.7,0.3,1.2,0.2,1.6c0.3-0.6,0.6-1.2,1-1.8
						c0.3-0.5,0.7-1,1.2-1.5s1-0.9,1.6-1.2c0.5-0.3,1-0.6,1.7-0.8c0.7-0.2,1.2-0.3,1.8-0.2c0.5,0.1,0.9,0.3,1.1,0.7
						c0.2,0.4,0.2,1-0.1,1.9c-0.4,0.9-1,2.4-1.9,4.8c-0.8,2.3-1.7,4.7-2.7,7.3c-0.9,2.5-1.8,4.8-2.5,6.8s-1.2,3.2-1.3,3.5
						c-0.2,0.5-0.2,1-0.1,1.6c0.1,0.5,0.3,0.9,0.7,1.2c0.4,0.3,0.8,0.4,1.3,0.3c0.5-0.1,1.1-0.4,1.8-1.1c0.6-0.7,1.3-1.4,2-2.4
						s1.5-1.8,2.2-2.7c0.7-0.9,1.3-1.8,1.9-2.6c0.6-0.8,1-1.4,1.2-1.9l0.3,2.9C-64.5,264.8-65.8,266.7-67.1,268.4z M-78.6,256.4
						c0.5-1.4,0.9-2.6,1-3.5c0.2-1,0.2-1.8,0.1-2.4c0-0.6-0.1-1.1-0.2-1.6l-0.4-1.2c-0.1-0.4-0.4-0.7-0.7-0.9
						c-0.8-0.3-1.7,0-2.8,0.9c-1.1,0.9-2.2,2.2-3.2,3.7c-1.1,1.5-2.1,3.2-3,5c-0.9,1.8-1.7,3.4-2.3,4.7c-0.4,1-0.7,2-0.9,3
						c-0.2,1-0.3,2-0.2,2.9c0,0.9,0.2,1.6,0.5,2.2c0.3,0.6,0.8,0.8,1.4,0.8c1.3,0,2.7-0.7,4.2-2.2c1.5-1.4,2.9-3.5,4.2-6.3
						C-79.9,259.5-79.2,257.8-78.6,256.4z"/>
				</g>
				<g>
					<path class="st1" d="M-54.2,269.4c1.1-1.1,2.2-2.3,3.3-3.6c1.2-1.5,2.6-3.2,3.9-5.1l0.7,2.5c-1.4,2.1-2.9,4-4.3,5.7
						c-1.2,1.5-2.5,2.9-3.9,4.2c-1.3,1.3-2.6,2-3.7,2.3c-1.2,0.2-2.4,0.1-3.7-0.2c-1.3-0.3-2.3-1.3-3-2.8c-0.3-0.7-0.5-1.5-0.6-2.4
						c-0.2-1-0.2-1.9-0.2-2.8c0-1,0.1-1.9,0.2-2.8c0.1-0.9,0.3-1.7,0.6-2.3c0.2-0.9,0.6-2.1,1.2-3.7c0.5-1.4,1.3-3.2,2.2-5.5
						c1-2.3,2.2-5.3,3.8-9c1.2-0.2,2.3-0.5,3.3-0.9c1-0.4,2.3-0.9,3.8-1.7c-0.7,1.6-1.4,3.5-2.3,5.8c-0.8,2.3-1.7,4.6-2.5,6.9
						c-0.8,2.3-1.5,4.4-2.2,6.2c-0.6,1.8-1,3-1.1,3.5c-0.4,1.5-0.6,2.8-0.6,3.8s0.1,1.8,0.4,2.5c0.3,0.6,0.7,1,1.1,1.3
						c0.4,0.2,0.9,0.3,1.3,0.1C-56.1,271.1-55.3,270.5-54.2,269.4z M-48.5,235.6c0.1,0.7-0.2,1.5-0.9,2.3c-0.8,0.9-1.7,1.5-2.7,1.9
						c-1,0.4-2.2,0.7-3.5,0.8c-0.6,0.1-1.1,0-1.6-0.4c-0.5-0.4-0.8-0.9-1-1.6c-0.2-0.7-0.1-1.5,0.1-2.3c0.3-0.9,0.9-1.7,1.9-2.5
						c1.5-1.2,2.8-1.7,3.8-1.4c1,0.3,1.9,0.8,2.6,1.3C-49.1,234.3-48.6,234.9-48.5,235.6z"/>
				</g>
				<g>
					<path class="st1" d="M-21.3,268c-1.3,1.7-2.7,3.3-4.1,4.9c-1.4,1.5-2.7,2.5-3.8,2.9c-1.6,0.6-2.7,0.5-3.4-0.3
						c-0.7-0.8-1.1-1.7-1.2-2.7c-2.9,2-6.2,2.9-9.8,2.9c-1.8,0-3.2-0.3-4.3-0.8c-1.1-0.5-2-1.1-2.6-1.8c-0.6-0.7-1-1.3-1.2-1.9
						s-0.3-1-0.3-1.2c-0.3,0.5-0.7,0.9-1.2,1.2c-0.5,0.3-1,0.6-1.4,0.7c-0.5,0.1-0.8,0.1-1.1,0c-0.3-0.1-0.4-0.4-0.2-0.9
						c0.4-0.3,0.7-0.6,1-0.7c0.3-0.1,0.6-0.3,0.9-0.6c1-0.7,2.2-1.9,3.6-3.9s2.8-4.1,4.3-6.4c1.4-2.3,2.8-4.6,4-7
						c1.2-2.3,2.2-4.2,2.7-5.7c-0.5-0.5-0.9-0.9-1.2-1.4c-0.3-0.5-0.4-1.2-0.4-2.1c0-0.6,0.1-1.1,0.4-1.6c0.3-0.5,0.7-0.8,1.1-1.1
						c0.5-0.3,1-0.4,1.5-0.5c0.6-0.1,1,0,1.4,0.1c0.5,0.1,0.9,0.5,1.2,1.1c0.3,0.6,0.6,1.2,0.7,1.9c0.2,0.3,0.4,0.6,0.5,1.1
						c0.2,0.5,0.4,1,0.6,1.6c0.3,0.6,0.6,1.1,1,1.7c0.4,0.6,0.9,1.1,1.5,1.6c1,0.8,2,1.6,2.9,2.3c0.9,0.8,1.6,1.7,2.1,2.7
						c0.5,1,0.7,2.3,0.6,3.9c-0.1,1.5-0.5,3.5-1.4,5.9c-0.3,1-0.8,2-1.3,2.8c-0.6,0.8-1.1,1.7-1.7,2.5c0.3,1.3,0.9,2,1.7,2
						c0.8,0,1.8-0.7,2.9-2c0.9-1,1.8-2.1,2.6-3c0.8-1,1.6-2,2.4-2.9c0.6-0.7,1.2-1.5,1.7-2.3c0.6-0.8,1.1-1.5,1.6-2.3l0.3,2.6
						C-18.3,263.8-19.8,266-21.3,268z M-36.7,251.8c-0.1,0.5-0.6,1.4-1.5,2.7c-0.9,1.3-1.7,2.7-2.7,4.2c-1.1,1.7-2.4,3.6-3.7,5.6
						c-0.1,0.4-0.2,0.9-0.2,1.4c0,0.5,0,1,0.2,1.5c0.2,0.5,0.5,0.9,0.9,1.3c0.4,0.4,1,0.6,1.8,0.6c2.6,0.1,4.8-0.3,6.7-1.4
						c1.9-1.1,3.4-3,4.4-5.7c0.7-1.7,1-3.3,0.7-4.9c-0.3-1.5-0.8-2.7-1.5-3.6c-0.7-0.9-1.4-1.6-2-2c-0.6-0.4-1.1-0.8-1.3-1.1
						C-35.6,249.2-36.2,249.7-36.7,251.8z"/>
				</g>
			</g>
		</g>
	</g>
	<g>
		<path class="st2" d="M-127,391.7c-82.7,0-150-67.3-150-150s67.3-150,150-150S23,159,23,241.7S-44.3,391.7-127,391.7z M-127,94.3
			c-81.3,0-147.5,66.1-147.5,147.5s66.1,147.5,147.5,147.5S20.5,323,20.5,241.7S-45.7,94.3-127,94.3z"/>
	</g>
</g>
</svg>
